<svg height="2510" width="720" xmlns="http://www.w3.org/2000/svg">
<rect height="2510" fill="#555" width="720"></rect>
<text fill="#7f7" font-family="Courier New" font-size="12" xml:space="preserve">
<tspan x="10" y="26">9 megabytes installed</tspan>
<tspan x="10" y="42"></tspan>
<tspan x="10" y="58">node_modules</tspan>
<tspan x="10" y="74">└─┬ gulp-connect@5.0.0 </tspan>
<tspan x="10" y="90">  ├─┬ connect@2.30.2 </tspan>
<tspan x="10" y="106">  │ ├── basic-auth-connect@1.0.0 </tspan>
<tspan x="10" y="122">  │ ├─┬ body-parser@1.13.3 </tspan>
<tspan x="10" y="138">  │ │ ├── iconv-lite@0.4.11 </tspan>
<tspan x="10" y="154">  │ │ ├─┬ on-finished@2.3.0 </tspan>
<tspan x="10" y="170">  │ │ │ └── ee-first@1.1.1 </tspan>
<tspan x="10" y="186">  │ │ └─┬ raw-body@2.1.7 </tspan>
<tspan x="10" y="202">  │ │   ├── bytes@2.4.0 </tspan>
<tspan x="10" y="218">  │ │   └── iconv-lite@0.4.13 </tspan>
<tspan x="10" y="234">  │ ├── bytes@2.1.0 </tspan>
<tspan x="10" y="250">  │ ├─┬ compression@1.5.2 </tspan>
<tspan x="10" y="266">  │ │ ├─┬ accepts@1.2.13 </tspan>
<tspan x="10" y="282">  │ │ │ └── negotiator@0.5.3 </tspan>
<tspan x="10" y="298">  │ │ ├─┬ compressible@2.0.10 </tspan>
<tspan x="10" y="314">  │ │ │ └── mime-db@1.27.0 </tspan>
<tspan x="10" y="330">  │ │ └── vary@1.0.1 </tspan>
<tspan x="10" y="346">  │ ├─┬ connect-timeout@1.6.2 </tspan>
<tspan x="10" y="362">  │ │ └── ms@0.7.1 </tspan>
<tspan x="10" y="378">  │ ├── content-type@1.0.2 </tspan>
<tspan x="10" y="394">  │ ├── cookie@0.1.3 </tspan>
<tspan x="10" y="410">  │ ├── cookie-parser@1.3.5 </tspan>
<tspan x="10" y="426">  │ ├── cookie-signature@1.0.6 </tspan>
<tspan x="10" y="442">  │ ├─┬ csurf@1.8.3 </tspan>
<tspan x="10" y="458">  │ │ └─┬ csrf@3.0.6 </tspan>
<tspan x="10" y="474">  │ │   ├── rndm@1.2.0 </tspan>
<tspan x="10" y="490">  │ │   ├── tsscmp@1.0.5 </tspan>
<tspan x="10" y="506">  │ │   └─┬ uid-safe@2.1.4 </tspan>
<tspan x="10" y="522">  │ │     └── random-bytes@1.0.0 </tspan>
<tspan x="10" y="538">  │ ├── debug@2.2.0 </tspan>
<tspan x="10" y="554">  │ ├── depd@1.0.1 </tspan>
<tspan x="10" y="570">  │ ├─┬ errorhandler@1.4.3 </tspan>
<tspan x="10" y="586">  │ │ ├─┬ accepts@1.3.3 </tspan>
<tspan x="10" y="602">  │ │ │ └── negotiator@0.6.1 </tspan>
<tspan x="10" y="618">  │ │ └── escape-html@1.0.3 </tspan>
<tspan x="10" y="634">  │ ├─┬ express-session@1.11.3 </tspan>
<tspan x="10" y="650">  │ │ ├── crc@3.3.0 </tspan>
<tspan x="10" y="666">  │ │ └─┬ uid-safe@2.0.0 </tspan>
<tspan x="10" y="682">  │ │   └── base64-url@1.2.1 </tspan>
<tspan x="10" y="698">  │ ├─┬ finalhandler@0.4.0 </tspan>
<tspan x="10" y="714">  │ │ ├── escape-html@1.0.2 </tspan>
<tspan x="10" y="730">  │ │ └── unpipe@1.0.0 </tspan>
<tspan x="10" y="746">  │ ├── fresh@0.3.0 </tspan>
<tspan x="10" y="762">  │ ├─┬ http-errors@1.3.1 </tspan>
<tspan x="10" y="778">  │ │ ├── inherits@2.0.3 </tspan>
<tspan x="10" y="794">  │ │ └── statuses@1.3.1 </tspan>
<tspan x="10" y="810">  │ ├─┬ method-override@2.3.8 </tspan>
<tspan x="10" y="826">  │ │ ├─┬ debug@2.6.3 </tspan>
<tspan x="10" y="842">  │ │ │ └── ms@0.7.2 </tspan>
<tspan x="10" y="858">  │ │ ├── methods@1.1.2 </tspan>
<tspan x="10" y="874">  │ │ └── vary@1.1.1 </tspan>
<tspan x="10" y="890">  │ ├─┬ morgan@1.6.1 </tspan>
<tspan x="10" y="906">  │ │ └── basic-auth@1.0.4 </tspan>
<tspan x="10" y="922">  │ ├─┬ multiparty@3.3.2 </tspan>
<tspan x="10" y="938">  │ │ ├─┬ readable-stream@1.1.14 </tspan>
<tspan x="10" y="954">  │ │ │ ├── core-util-is@1.0.2 </tspan>
<tspan x="10" y="970">  │ │ │ ├── isarray@0.0.1 </tspan>
<tspan x="10" y="986">  │ │ │ └── string_decoder@0.10.31 </tspan>
<tspan x="10" y="1002">  │ │ └── stream-counter@0.2.0 </tspan>
<tspan x="10" y="1018">  │ ├── on-headers@1.0.1 </tspan>
<tspan x="10" y="1034">  │ ├── parseurl@1.3.1 </tspan>
<tspan x="10" y="1050">  │ ├── pause@0.1.0 </tspan>
<tspan x="10" y="1066">  │ ├── qs@4.0.0 </tspan>
<tspan x="10" y="1082">  │ ├─┬ response-time@2.3.2 </tspan>
<tspan x="10" y="1098">  │ │ └── depd@1.1.0 </tspan>
<tspan x="10" y="1114">  │ ├─┬ serve-favicon@2.3.2 </tspan>
<tspan x="10" y="1130">  │ │ ├── etag@1.7.0 </tspan>
<tspan x="10" y="1146">  │ │ └── ms@0.7.2 </tspan>
<tspan x="10" y="1162">  │ ├─┬ serve-index@1.7.3 </tspan>
<tspan x="10" y="1178">  │ │ ├── batch@0.5.3 </tspan>
<tspan x="10" y="1194">  │ │ └── mime-types@2.1.15 </tspan>
<tspan x="10" y="1210">  │ ├─┬ serve-static@1.10.3 </tspan>
<tspan x="10" y="1226">  │ │ └─┬ send@0.13.2 </tspan>
<tspan x="10" y="1242">  │ │   ├── depd@1.1.0 </tspan>
<tspan x="10" y="1258">  │ │   ├── destroy@1.0.4 </tspan>
<tspan x="10" y="1274">  │ │   ├── mime@1.3.4 </tspan>
<tspan x="10" y="1290">  │ │   ├── range-parser@1.0.3 </tspan>
<tspan x="10" y="1306">  │ │   └── statuses@1.2.1 </tspan>
<tspan x="10" y="1322">  │ ├─┬ type-is@1.6.15 </tspan>
<tspan x="10" y="1338">  │ │ └── media-typer@0.3.0 </tspan>
<tspan x="10" y="1354">  │ ├── utils-merge@1.0.0 </tspan>
<tspan x="10" y="1370">  │ └── vhost@3.0.2 </tspan>
<tspan x="10" y="1386">  ├── connect-livereload@0.5.4 </tspan>
<tspan x="10" y="1402">  ├─┬ event-stream@3.3.4 </tspan>
<tspan x="10" y="1418">  │ ├── duplexer@0.1.1 </tspan>
<tspan x="10" y="1434">  │ ├── from@0.1.7 </tspan>
<tspan x="10" y="1450">  │ ├── map-stream@0.1.0 </tspan>
<tspan x="10" y="1466">  │ ├── pause-stream@0.0.11 </tspan>
<tspan x="10" y="1482">  │ ├── split@0.3.3 </tspan>
<tspan x="10" y="1498">  │ ├── stream-combiner@0.0.4 </tspan>
<tspan x="10" y="1514">  │ └── through@2.3.8 </tspan>
<tspan x="10" y="1530">  ├─┬ gulp-util@3.0.8 </tspan>
<tspan x="10" y="1546">  │ ├── array-differ@1.0.0 </tspan>
<tspan x="10" y="1562">  │ ├── array-uniq@1.0.3 </tspan>
<tspan x="10" y="1578">  │ ├── beeper@1.1.1 </tspan>
<tspan x="10" y="1594">  │ ├─┬ chalk@1.1.3 </tspan>
<tspan x="10" y="1610">  │ │ ├── ansi-styles@2.2.1 </tspan>
<tspan x="10" y="1626">  │ │ ├── escape-string-regexp@1.0.5 </tspan>
<tspan x="10" y="1642">  │ │ ├─┬ has-ansi@2.0.0 </tspan>
<tspan x="10" y="1658">  │ │ │ └── ansi-regex@2.1.1 </tspan>
<tspan x="10" y="1674">  │ │ ├── strip-ansi@3.0.1 </tspan>
<tspan x="10" y="1690">  │ │ └── supports-color@2.0.0 </tspan>
<tspan x="10" y="1706">  │ ├── dateformat@2.0.0 </tspan>
<tspan x="10" y="1722">  │ ├─┬ fancy-log@1.3.0 </tspan>
<tspan x="10" y="1738">  │ │ └── time-stamp@1.0.1 </tspan>
<tspan x="10" y="1754">  │ ├─┬ gulplog@1.0.0 </tspan>
<tspan x="10" y="1770">  │ │ └── glogg@1.0.0 </tspan>
<tspan x="10" y="1786">  │ ├─┬ has-gulplog@0.1.0 </tspan>
<tspan x="10" y="1802">  │ │ └── sparkles@1.0.0 </tspan>
<tspan x="10" y="1818">  │ ├── lodash._reescape@3.0.0 </tspan>
<tspan x="10" y="1834">  │ ├── lodash._reevaluate@3.0.0 </tspan>
<tspan x="10" y="1850">  │ ├── lodash._reinterpolate@3.0.0 </tspan>
<tspan x="10" y="1866">  │ ├─┬ lodash.template@3.6.2 </tspan>
<tspan x="10" y="1882">  │ │ ├── lodash._basecopy@3.0.1 </tspan>
<tspan x="10" y="1898">  │ │ ├── lodash._basetostring@3.0.1 </tspan>
<tspan x="10" y="1914">  │ │ ├── lodash._basevalues@3.0.0 </tspan>
<tspan x="10" y="1930">  │ │ ├── lodash._isiterateecall@3.0.9 </tspan>
<tspan x="10" y="1946">  │ │ ├─┬ lodash.escape@3.2.0 </tspan>
<tspan x="10" y="1962">  │ │ │ └── lodash._root@3.0.1 </tspan>
<tspan x="10" y="1978">  │ │ ├─┬ lodash.keys@3.1.2 </tspan>
<tspan x="10" y="1994">  │ │ │ ├── lodash._getnative@3.9.1 </tspan>
<tspan x="10" y="2010">  │ │ │ ├── lodash.isarguments@3.1.0 </tspan>
<tspan x="10" y="2026">  │ │ │ └── lodash.isarray@3.0.4 </tspan>
<tspan x="10" y="2042">  │ │ ├── lodash.restparam@3.6.1 </tspan>
<tspan x="10" y="2058">  │ │ └── lodash.templatesettings@3.1.1 </tspan>
<tspan x="10" y="2074">  │ ├── minimist@1.2.0 </tspan>
<tspan x="10" y="2090">  │ ├─┬ multipipe@0.1.2 </tspan>
<tspan x="10" y="2106">  │ │ └── duplexer2@0.0.2 </tspan>
<tspan x="10" y="2122">  │ ├── object-assign@3.0.0 </tspan>
<tspan x="10" y="2138">  │ ├── replace-ext@0.0.1 </tspan>
<tspan x="10" y="2154">  │ ├─┬ through2@2.0.3 </tspan>
<tspan x="10" y="2170">  │ │ ├─┬ readable-stream@2.2.9 </tspan>
<tspan x="10" y="2186">  │ │ │ ├── buffer-shims@1.0.0 </tspan>
<tspan x="10" y="2202">  │ │ │ ├── isarray@1.0.0 </tspan>
<tspan x="10" y="2218">  │ │ │ ├── process-nextick-args@1.0.7 </tspan>
<tspan x="10" y="2234">  │ │ │ ├── string_decoder@1.0.0 </tspan>
<tspan x="10" y="2250">  │ │ │ └── util-deprecate@1.0.2 </tspan>
<tspan x="10" y="2266">  │ │ └── xtend@4.0.1 </tspan>
<tspan x="10" y="2282">  │ └─┬ vinyl@0.5.3 </tspan>
<tspan x="10" y="2298">  │   ├── clone@1.0.2 </tspan>
<tspan x="10" y="2314">  │   └── clone-stats@0.0.1 </tspan>
<tspan x="10" y="2330">  └─┬ tiny-lr@0.2.1 </tspan>
<tspan x="10" y="2346">    ├─┬ body-parser@1.14.2 </tspan>
<tspan x="10" y="2362">    │ ├── bytes@2.2.0 </tspan>
<tspan x="10" y="2378">    │ ├── depd@1.1.0 </tspan>
<tspan x="10" y="2394">    │ ├── iconv-lite@0.4.13 </tspan>
<tspan x="10" y="2410">    │ └── qs@5.2.0 </tspan>
<tspan x="10" y="2426">    ├─┬ faye-websocket@0.10.0 </tspan>
<tspan x="10" y="2442">    │ └─┬ websocket-driver@0.6.5 </tspan>
<tspan x="10" y="2458">    │   └── websocket-extensions@0.1.1 </tspan>
<tspan x="10" y="2474">    ├── livereload-js@2.2.2 </tspan>
<tspan x="10" y="2490">    └── qs@5.1.0</tspan>
</text>
</svg>
